<svg xmlns="http://www.w3.org/2000/svg" xmlns:xlink="http://www.w3.org/1999/xlink" version="1.1" x="0px" y="0px" viewBox="0 0 15 18.75" enable-background="new 0 0 15 15" xml:space="preserve"><path fill-rule="evenodd" clip-rule="evenodd" d="M2.6,3.4L2.6,3.4h9.7c0.2,0,0.4,0.2,0.4,0.4v0v7.4c0,0.2-0.2,0.4-0.4,0.4h0H2.6  c-0.2,0-0.4-0.2-0.4-0.4v0V3.8C2.2,3.6,2.4,3.4,2.6,3.4L2.6,3.4z M12,4.6L7.7,8.8c-0.1,0.1-0.2,0.1-0.3,0L3,4.6v6.2H12V4.6L12,4.6z   M11.6,4.2H3.4l4.1,4.1L11.6,4.2z"/><text x="0" y="30" fill="#000000" font-size="5px" font-weight="bold" font-family="'Helvetica Neue', Helvetica, Arial-Unicode, Arial, Sans-serif">Created by Adriana Medina</text><text x="0" y="35" fill="#000000" font-size="5px" font-weight="bold" font-family="'Helvetica Neue', Helvetica, Arial-Unicode, Arial, Sans-serif">from the Noun Project</text></svg>