<svg xmlns="http://www.w3.org/2000/svg" xmlns:xlink="http://www.w3.org/1999/xlink" version="1.1" x="0px" y="0px" viewBox="0 0 50 62.5" enable-background="new 0 0 50 50" xml:space="preserve"><g><g><path fill="#000000" d="M34,37H16c-1.1,0-2-0.9-2-2V24.4c0-1.1,0.9-2,2-2h18c1.1,0,2,0.9,2,2V35C36,36.1,35.1,37,34,37z M34,35v1    V35C34,35,34,35,34,35z M16,24.4V35h18l0-10.7H16z"/></g><g><path fill="#000000" d="M31.4,24.1c-0.6,0-1-0.4-1-1v-2.8c0-3-2.4-5.4-5.4-5.4c-3,0-5.4,2.4-5.4,5.4v2.8c0,0.6-0.4,1-1,1    c-0.6,0-1-0.4-1-1v-2.8c0-4.1,3.3-7.4,7.4-7.4c4.1,0,7.4,3.3,7.4,7.4v2.8C32.4,23.7,32,24.1,31.4,24.1z"/></g><path fill="#000000" d="M25,26.3c-1.2,0-2.1,0.9-2.1,2.1c0,0.8,0.4,1.5,1.1,1.8v2.3h2v-2.3c0.6-0.4,1.1-1,1.1-1.8   C27.1,27.2,26.2,26.3,25,26.3L25,26.3z"/></g><text x="0" y="65" fill="#000000" font-size="5px" font-weight="bold" font-family="'Helvetica Neue', Helvetica, Arial-Unicode, Arial, Sans-serif">Created by Adriana Medina</text><text x="0" y="70" fill="#000000" font-size="5px" font-weight="bold" font-family="'Helvetica Neue', Helvetica, Arial-Unicode, Arial, Sans-serif">from the Noun Project</text></svg>